P1
11 9
00000000000
00000100000
00001110000
00001110000
00011111000
00011111000
00111111100
01111111110
00000000000
